<?xml version="1.0" standalone="no"?>
<!DOCTYPE svg PUBLIC "-//W3C//DTD SVG 20010904//EN"
 "http://www.w3.org/TR/2001/REC-SVG-20010904/DTD/svg10.dtd">
<svg version="1.0" xmlns="http://www.w3.org/2000/svg"
 width="200.000000pt" height="200.000000pt" viewBox="0 0 200.000000 200.000000"
 preserveAspectRatio="xMidYMid meet">

<g transform="translate(0.000000,200.000000) scale(0.100000,-0.100000)"
fill="#000000" stroke="none">
<path d="M478 1604 c-15 -8 -40 -36 -55 -62 -59 -101 -26 -221 96 -343 68 -68
169 -129 216 -129 19 -1 19 -1 1 -12 -28 -16 -126 -4 -176 22 -25 13 -79 47
-121 76 -107 75 -152 94 -227 94 -76 0 -134 -26 -158 -72 -24 -46 -20 -180 6
-223 20 -32 81 -66 118 -64 9 0 -3 8 -28 17 -28 11 -53 30 -67 51 -34 50 -30
68 8 40 21 -14 50 -23 83 -25 49 -3 50 -3 10 4 -51 10 -91 35 -106 68 -10 22
-8 28 14 51 59 58 163 36 261 -55 142 -133 212 -166 336 -160 38 2 67 0 65 -4
-9 -15 -112 -28 -222 -28 -64 0 -135 -5 -157 -11 -83 -23 -131 -107 -106 -189
12 -41 71 -100 99 -99 13 0 13 2 -4 9 -11 4 -33 22 -47 40 -48 56 -30 154 32
180 37 15 74 15 203 0 178 -21 302 12 384 103 24 27 46 48 47 46 96 -142 214
-175 497 -141 37 4 81 4 100 1 38 -8 76 -46 86 -86 11 -41 -16 -104 -55 -130
-41 -28 -29 -31 16 -3 90 54 88 194 -3 251 -33 20 -55 23 -203 30 -202 8 -261
23 -123 31 114 7 164 29 282 129 127 107 209 138 284 109 37 -14 34 -52 -6
-96 -26 -27 -44 -37 -83 -43 l-50 -9 43 -1 c24 0 53 4 65 10 33 17 77 61 77
76 0 8 5 11 10 8 6 -3 10 -24 10 -45 0 -51 -37 -95 -98 -115 l-47 -15 44 5
c79 10 131 66 131 142 0 45 -61 155 -102 186 -35 26 -131 34 -193 17 -25 -7
-94 -46 -153 -87 -59 -40 -129 -80 -156 -88 -57 -17 -132 -20 -141 -5 -3 6 2
10 13 10 40 0 144 63 206 126 139 138 167 295 69 386 -16 15 -44 30 -63 33
l-35 5 32 -10 c39 -13 69 -50 84 -102 20 -76 -12 -149 -100 -230 -73 -68 -138
-101 -212 -106 -48 -4 -60 -1 -78 17 -28 28 -26 56 9 121 36 69 40 134 9 174
-36 46 -76 60 -169 61 -72 0 -92 -4 -126 -24 -23 -13 -48 -35 -55 -49 -22 -40
-16 -104 14 -155 102 -173 -97 -202 -280 -42 -126 111 -137 269 -22 327 24 13
28 18 14 18 -11 -1 -32 -7 -47 -16z m-239 -405 c48 -11 103 -46 171 -108 42
-39 40 -38 -33 13 -114 80 -209 94 -284 41 -30 -21 -30 -5 0 23 42 40 77 47
146 31z m1573 1 c59 -17 52 -26 -20 -26 -80 0 -130 -20 -240 -97 -125 -87
-131 -88 -32 -6 106 89 137 110 182 124 54 17 64 17 110 5z m-1331 -167 c13
-16 12 -17 -3 -4 -10 7 -18 15 -18 17 0 8 8 3 21 -13z"/>
<path d="M445 741 c-10 -9 -4 -21 10 -21 12 0 14 -9 10 -42 -13 -94 -16 -106
-31 -112 -9 -3 -14 -11 -12 -18 3 -7 30 -10 83 -9 44 1 81 4 83 6 2 2 6 23 9
47 l5 43 -27 -32 c-29 -36 -49 -43 -41 -15 2 9 7 42 11 73 5 46 10 58 27 62
40 11 7 24 -57 24 -36 0 -68 -3 -70 -6z"/>
<path d="M660 735 c0 -7 6 -15 13 -18 22 -8 0 -136 -27 -159 -12 -9 -16 -18
-11 -18 17 -2 170 1 172 4 1 1 5 22 9 46 l6 45 -30 -32 c-17 -18 -34 -33 -37
-33 -6 0 0 61 11 123 3 15 12 27 20 27 8 0 14 6 14 14 0 10 -18 13 -70 13 -49
0 -70 -4 -70 -12z"/>
<path d="M993 738 c-7 -12 7 -28 24 -28 10 0 13 -6 9 -16 -3 -9 -6 -36 -6 -60
0 -41 -2 -44 -23 -39 -18 5 -26 1 -35 -20 -29 -63 43 -112 94 -64 29 27 44 76
44 144 0 40 4 53 21 63 12 7 18 16 14 20 -9 9 -136 9 -142 0z m17 -193 c0 -8
-4 -15 -10 -15 -5 0 -10 7 -10 15 0 8 5 15 10 15 6 0 10 -7 10 -15z"/>
<path d="M1233 740 c-61 -24 -84 -140 -38 -185 62 -63 156 -2 158 102 0 38 -4
50 -27 70 -28 24 -56 28 -93 13z m43 -92 c-10 -81 -29 -98 -22 -20 3 35 9 68
12 74 12 19 16 -2 10 -54z"/>
<path d="M1413 736 c-3 -5 1 -12 9 -17 16 -9 33 -86 29 -124 -1 -11 -9 -25
-17 -31 -8 -6 -14 -15 -14 -20 0 -14 129 -11 134 2 3 7 -2 15 -10 18 -29 11
-11 72 43 144 13 17 23 32 21 33 -24 6 -191 2 -195 -5z m130 -36 c-3 -11 -9
-17 -14 -14 -14 8 -10 34 5 34 9 0 12 -7 9 -20z"/>
</g>
</svg>
